<svg id="Kronen_Zeitung_Logo_-_unabhängig" data-name="Kronen Zeitung Logo - unabhängig" xmlns="http://www.w3.org/2000/svg" xmlns:xlink="http://www.w3.org/1999/xlink" width="111" height="103.07" viewBox="0 0 111 103.07">
  <defs>
    <clipPath id="clip-path">
      <rect id="Rechteck_3694" data-name="Rechteck 3694" width="111" height="103.07" transform="translate(0 2)" fill="none"/>
    </clipPath>
  </defs>
  <rect id="container_-_background" data-name="container - background" width="111" height="103.07" fill="#e3000f"/>
  <g id="inner" transform="translate(0 -2)" clip-path="url(#clip-path)">
    <path id="Pfad_2837" data-name="Pfad 2837" d="M109.179,57.249V39.4c0-3.794-1.681-6.294-4.612-6.294-2.155,0-3.448,1.207-4.44,3.492l-.172-3.061H93.662V57.249h6.465V39.4a3.226,3.226,0,0,1,1.595-.776c.69,0,.992.475.992,1.724v16.9ZM85.472,42.722H82.583V39.748c0-1.337.517-1.94,1.466-1.94s1.423.56,1.423,2.026Zm6.293,3.793v-5.3c0-4.957-2.285-8.1-7.673-8.1-5.043,0-7.845,2.716-7.845,7.673v9.224c0,4.957,2.8,7.673,7.845,7.673,5.388,0,7.673-3.147,7.673-8.1v-.949H85.428v2.414c0,1.509-.431,1.854-1.379,1.854-.992,0-1.423-.474-1.423-1.811V46.516ZM74.351,57.249V39.4c0-3.794-1.681-6.294-4.612-6.294-2.155,0-3.448,1.207-4.439,3.492l-.172-3.061H58.833V57.249H65.3V39.4a3.224,3.224,0,0,1,1.595-.776c.69,0,.991.475.991,1.724v16.9Zm-23.88-6.035c0,1.121-.216,1.724-1.293,1.724s-1.293-.6-1.293-1.724V39.576c0-1.121.215-1.724,1.293-1.724s1.293.6,1.293,1.724ZM56.937,40.7c0-4.784-2.888-7.587-7.759-7.587s-7.759,2.8-7.759,7.587v9.4c0,4.785,2.888,7.587,7.759,7.587s7.759-2.8,7.759-7.587ZM36.548,57.249V41.817a3.579,3.579,0,0,1,2.07-.69,4.3,4.3,0,0,1,1.423.215l.56-7.8a2.994,2.994,0,0,0-1.508-.345c-1.638,0-3.1,1.164-3.491,3.965h-.172L35.3,33.541H30.254V57.249ZM18.875,26.213h-6.9V57.249h6.9ZM29.436,57.249l-4.311-16.9L29,26.213h-6.9l-3.19,14.613,3.664,16.423Z" transform="translate(-5.071 -12.098)" fill="#fff"/>
    <path id="Pfad_2838" data-name="Pfad 2838" d="M102.751,115.743a2.208,2.208,0,0,1-1.143.367c-.817,0-1.306-.531-1.306-1.837v-9.185c0-1.307.49-1.837,1.306-1.837a2.208,2.208,0,0,1,1.143.367Zm0,3.837c0,2.245-.857,3.266-2.817,3.266a7.667,7.667,0,0,1-4.327-1.348l-1.47,4.123a11.723,11.723,0,0,0,5.96,1.511c5.634,0,8.7-3.674,8.7-9.145V99.372h-5.838l-.2,1.837a4.8,4.8,0,0,0-4.083-2.245c-2.654,0-4.491,2.041-4.491,5.511v10.41c0,3.47,1.837,5.511,4.287,5.511,2.245,0,3.143-1.021,4.287-2.245Zm-10.373,2.245v-16.9c0-3.593-1.592-5.961-4.368-5.961-2.041,0-3.266,1.143-4.2,3.306l-.163-2.9H77.682v22.453h6.124v-16.9a3.057,3.057,0,0,1,1.51-.735c.653,0,.939.449.939,1.633v16Zm-16.5,0V99.372H69.759v16.9a3.06,3.06,0,0,1-1.511.735c-.653,0-.939-.449-.939-1.633v-16H61.186v16.9c0,3.593,1.592,5.961,4.368,5.961,2.041,0,3.267-1.143,4.205-3.307l.163,2.9Zm-15.762-5.144a2.313,2.313,0,0,1-1.511.612c-.776,0-1.225-.408-1.225-1.673V103.863h2.531V99.372H57.386V94.31H51.833l-.408,5.062H50.078v4.491h1.266v12.9c0,3.429,1.715,5.47,4.9,5.47a8.716,8.716,0,0,0,3.878-.817ZM49.014,99.372H42.89v22.453h6.124Zm.449-5.47A3.42,3.42,0,0,0,45.952,90.6,3.456,3.456,0,0,0,42.4,93.9a3.517,3.517,0,0,0,3.552,3.347A3.48,3.48,0,0,0,49.463,93.9M35.13,108.068H32.395v-2.817c0-1.266.49-1.837,1.389-1.837s1.347.531,1.347,1.918Zm5.96,3.592v-5.021c0-4.695-2.164-7.675-7.267-7.675-4.776,0-7.43,2.572-7.43,7.267v8.737c0,4.695,2.654,7.267,7.43,7.267,5.1,0,7.267-2.98,7.267-7.675v-.9h-6v2.286c0,1.429-.408,1.755-1.306,1.755-.939,0-1.348-.449-1.348-1.714V111.66ZM24.962,121.826v-5.307h-6L25.329,92.6v-.163H11.612v5.307h5.756L11.2,121.663v.163Z" transform="translate(-4.743 -39.355)" fill="#fff"/>
    <g id="Gruppe_8882" data-name="Gruppe 8882" transform="translate(-358 -8654.082)">
      <path id="Pfad_2839" data-name="Pfad 2839" d="M26.351,94.446a2.249,2.249,0,0,1-.169-.921v-3.2h.805v3.136a1.678,1.678,0,0,0,.123.683,1.265,1.265,0,0,0,2.186,0,1.583,1.583,0,0,0,.13-.7V90.328h.805v3.2a2.321,2.321,0,0,1-.176.936,1.835,1.835,0,0,1-1.849,1,1.806,1.806,0,0,1-1.856-1.012" transform="translate(356.721 8651.942)" fill="#fff"/>
      <path id="Pfad_2840" data-name="Pfad 2840" d="M37,95.382l-2.27-2.991c-.253-.322-.445-.6-.621-.836h-.015c.015.223.023.483.023.813v3.014h-.805V90.328h.79L36.287,93.2c.261.338.46.614.622.86h.015c-.008-.268-.015-.552-.015-.867V90.328h.805v5.054Z" transform="translate(356.401 8651.942)" fill="#fff"/>
      <path id="Pfad_2841" data-name="Pfad 2841" d="M42.229,90.3h.623l2,5.077h-.865l-.5-1.3H41.616l-.482,1.3h-.845Zm1.013,3.121-.415-1.15-.267-.814h-.016a8.473,8.473,0,0,1-.275.814l-.415,1.15Z" transform="translate(356.087 8651.943)" fill="#fff"/>
      <path id="Pfad_2842" data-name="Pfad 2842" d="M47.434,90.328h1.381c1.081,0,1.564.613,1.564,1.281a1.121,1.121,0,0,1-.637,1.058v.015a1.219,1.219,0,0,1,.967,1.227c0,.805-.6,1.473-1.756,1.473H47.434Zm1.281,2.147c.568,0,.867-.291.867-.744,0-.422-.261-.736-.867-.736H48.24v1.48Zm.169,2.24c.628,0,1-.23,1-.8,0-.483-.36-.775-.921-.775H48.24v1.572Z" transform="translate(355.767 8651.942)" fill="#fff"/>
      <path id="Pfad_2843" data-name="Pfad 2843" d="M53.521,90.328h.805v2.132h2.531V90.328h.805v5.054h-.805v-2.24H54.326v2.24h-.805Z" transform="translate(355.493 8651.942)" fill="#fff"/>
      <path id="Pfad_2844" data-name="Pfad 2844" d="M62.166,90.249h.621l2,5.077h-.866l-.5-1.3H61.552l-.483,1.3h-.843Zm-.829-.736a.426.426,0,1,1,.43.43.428.428,0,0,1-.43-.43m1.841,3.858-.415-1.15-.268-.813H62.48c-.046.176-.123.406-.276.813l-.415,1.15Zm-.407-3.858a.422.422,0,1,1,.843,0,.422.422,0,1,1-.843,0" transform="translate(355.192 8651.998)" fill="#fff"/>
      <path id="Pfad_2845" data-name="Pfad 2845" d="M71.06,95.382l-2.27-2.991c-.253-.322-.445-.6-.621-.836h-.015c.015.223.023.483.023.813v3.014h-.805V90.328h.79L70.346,93.2c.261.338.46.614.622.86h.015c-.008-.268-.015-.552-.015-.867V90.328h.805v5.054Z" transform="translate(354.871 8651.942)" fill="#fff"/>
      <path id="Pfad_2846" data-name="Pfad 2846" d="M79.048,95.057a4.059,4.059,0,0,1-1.772.4,2.418,2.418,0,0,1-2.6-2.515A2.569,2.569,0,0,1,77.4,90.279a4.047,4.047,0,0,1,1.442.261v.752a3.037,3.037,0,0,0-1.38-.329,1.778,1.778,0,0,0-1.925,1.917,1.721,1.721,0,0,0,1.8,1.895,2.2,2.2,0,0,0,.905-.169V92.948h.805Z" transform="translate(354.543 8651.944)" fill="#fff"/>
      <rect id="Rechteck_3695" data-name="Rechteck 3695" width="0.805" height="5.054" transform="translate(436.344 8742.271)" fill="#fff"/>
      <path id="Pfad_2847" data-name="Pfad 2847" d="M90.048,95.057a4.058,4.058,0,0,1-1.772.4,2.418,2.418,0,0,1-2.6-2.515A2.569,2.569,0,0,1,88.4,90.279a4.047,4.047,0,0,1,1.442.261v.752a3.037,3.037,0,0,0-1.38-.329,1.779,1.779,0,0,0-1.925,1.917,1.721,1.721,0,0,0,1.8,1.895,2.2,2.2,0,0,0,.905-.169V92.948h.805Z" transform="translate(354.049 8651.944)" fill="#fff"/>
    </g>
  </g>
</svg>
